<?xml version="1.0" standalone="no"?>
<!DOCTYPE svg PUBLIC "-//W3C//DTD SVG 1.1//EN" "http://www.w3.org/Graphics/SVG/1.1/DTD/svg11.dtd" >
<!--
2013-9-30: Created.
-->
<svg>
<metadata>
Created by iconfont
</metadata>
<defs>

<font id="iconfont" horiz-adv-x="1024" >
  <font-face
    font-family="iconfont"
    font-weight="500"
    font-stretch="normal"
    units-per-em="1024"
    ascent="896"
    descent="-128"
  />
    <missing-glyph />
    
    <glyph glyph-name="yiwancheng" unicode="&#58893;" d="M512 800c-282.77 0-512-229.23-512-512s229.23-512 512-512c282.77 0 512 229.23 512 512 0 282.77-229.23 512-512 512zM653.608 288l-174.913-204.675c-14.417-16.87-40.016-18.877-56.886-4.459l-177.067 151.32c-16.87 14.418-18.877 40.016-4.459 56.886 14.418 16.87 40.016 18.877 56.886 4.459l146.395-125.107 278.811 326.25c14.418 16.87 40.016 18.877 56.886 4.461 16.87-14.418 18.877-40.016 4.461-56.886l-130.112-152.249z"  horiz-adv-x="1024" />

    
    <glyph glyph-name="tongji" unicode="&#58912;" d="M257.113869 313.902502l0-324.978513 152.932088 0L410.045957 313.902502l-76.468602 63.72537L257.113869 313.902502 257.113869 313.902502zM2.223644-11.076009999999997l152.932088 0L155.155732 237.44003999999995 2.223644 116.36654299999998 2.223644-11.076009999999997 2.223644-11.076009999999997zM766.886131 390.372128l0-401.448138L919.823336-11.076009999999997 919.823336 517.813658 766.886131 390.372128 766.886131 390.372128zM512.00307 231.06688899999995l0-242.142899 152.930041 0L664.933111 307.53446799999995 543.860638 205.57633099999998 512.00307 231.06688899999995 512.00307 231.06688899999995zM1021.775332 779.07601L728.655412 779.07601l121.073496-114.699322-312.24142-254.889201L333.576331 581.539029 2.223644 320.27667599999995l0-114.699322 331.352687 261.263375L543.860638 294.787142l375.962697 305.868269 101.95302-95.583962L1021.776356 779.07601 1021.775332 779.07601zM1021.775332 779.07601"  horiz-adv-x="1024" />

    
    <glyph glyph-name="more" unicode="&#58904;" d="M221.184053 477.465718c-51.625798 0-93.475951-41.847084-93.475951-93.476975 0-51.626821 41.850154-93.456508 93.475951-93.456508 51.607378 0 93.456508 41.829687 93.456508 93.456508C314.640562 435.618635 272.791431 477.465718 221.184053 477.465718zM512.000512 477.465718c-51.647287 0-93.476975-41.847084-93.476975-93.476975 0-51.626821 41.829687-93.456508 93.476975-93.456508 51.607378 0 93.476975 41.829687 93.476975 93.456508C605.476463 435.618635 563.606867 477.465718 512.000512 477.465718zM802.814923 477.465718c-51.647287 0-93.476975-41.847084-93.476975-93.476975 0-51.626821 41.829687-93.456508 93.476975-93.456508 51.627844 0 93.476975 41.829687 93.476975 93.456508C896.291898 435.618635 854.442768 477.465718 802.814923 477.465718z"  horiz-adv-x="1024" />

    
    <glyph glyph-name="huanzhe" unicode="&#58881;" d="M732.280985 356.677725c63.742766 34.474163 102.980419 99.391684 102.980419 171.394578 0 107.790982-88.921215 195.485253-198.217481 195.485253-8.18031 0-16.743336-0.561795-25.445532-1.669012l-4.149507-0.525979 2.65241-3.233648c10.813277-13.18223 20.319791-27.576055 28.249391-42.778292l0.633427-1.210571 1.366114-0.027629c80.311117-1.744737 145.646148-67.255777 145.646148-146.041144 0-80.633459-66.817802-146.231479-148.95245-146.231479l-6.136767 0 84.006276-73.739445 0.856507-0.008186c107.735723-1.191128 195.381899-88.228437 195.381899-194.015785l0-13.680581c0-4.711302-0.860601-6.544043-4.38896-9.327436-6.523577-5.121648-18.682501-9.558703-35.166941-12.815887-15.452947-3.058662-35.215036-5.129834-60.417021-6.336312l-2.13871-0.103354-0.059352-2.13871c-0.48607-16.766872-4.213975-31.618115-11.079336-44.144406l-1.951445-3.560082 4.058432 0.13917c83.313497 2.863211 160.414503 14.33345 160.414503 78.287017l0 13.680581C960.420963 242.199437 860.886015 347.190653 732.280985 356.677725zM513.215688 364.012783c73.850985 36.07052 124.766608 111.157659 124.766608 197.783599 0 121.620965-100.343359 220.566488-223.690642 220.566488s-223.690642-98.945523-223.690642-220.566488c0-87.341231 51.741431-162.988118 126.584-198.702528C175.187975 350.278991 63.579037 232.31327599999997 63.579037 89.09236299999998l0-15.617699c-0.016373-40.751123 28.145014-66.228377 86.091774-77.880765 49.514717-9.955746 116.086925-9.955746 193.175651-9.955746l158.768003 0c149.858076 0 279.275611 0 279.275611 87.833441l0 15.621792C780.8911 237.009228 661.845797 357.990626 513.215688 364.012783z"  horiz-adv-x="1024" />

    
    <glyph glyph-name="clear" unicode="&#58888;" d="M512.039909 774.896828c-216.187761 0-391.44225-175.254489-391.44225-391.44532 0-216.186737 175.254489-391.443273 391.44225-391.443273 216.175481 0 391.42997 175.255513 391.42997 391.443273C903.469879 599.6413150000001 728.21539 774.896828 512.039909 774.896828L512.039909 774.896828zM677.341722 218.464873c-0.00614-0.007163-0.01228-0.013303-0.019443-0.019443-10.881838-10.881838-28.52466-10.893094-39.420825-0.017396L512.091074 344.01226399999996 386.505821 218.18858c-0.007163-0.00614-0.013303-0.014326-0.019443-0.01842-10.882861-10.882861-28.52466-10.894118-39.419801-0.019443-10.914584 10.895141-10.933003 28.55229-0.052189 39.45357l125.586277 125.823684-125.82573 125.588323c-10.900258 10.881838-10.918677 28.538987-0.037862 39.440267 0.007163 0.00614 0.013303 0.013303 0.019443 0.019443 10.867512 10.867512 28.511357 10.877745 39.406498 0.00307l125.823684-125.586277 125.573997 125.826753c0.007163 0.00614 0.013303 0.013303 0.01842 0.01842 10.882861 10.882861 28.525684 10.893094 39.435151 0.005117 10.902304-10.880815 10.916631-28.538987 0.037862-39.440267l-125.5873-125.82573 125.82573-125.586277C688.190815 247.00897599999996 688.208211 229.349781 677.341722 218.464873L677.341722 218.464873z"  horiz-adv-x="1024" />

    
    <glyph glyph-name="password" unicode="&#58896;" d="M780.99456 476.672H376.91904V626.36032c0 49.57696 60.31872 104.74496 134.66112 104.74496 74.368 0 134.7584-55.168 134.7584-104.74496v-44.928h0.52736a52.29568 52.29568 0 0 1 51.77344-44.89728c26.4448 0 48.22016 19.5072 51.8656 44.89728h0.59392v44.92288c0 115.712-107.27936 209.52576-239.5136 209.52576-132.21376 0-239.4624-93.81376-239.4624-209.52576V476.672h-29.95712c-49.55136 0-89.7536-40.20736-89.7536-89.78944v-359.2192c0-49.58208 40.20224-89.77408 89.7536-89.77408h538.8288c49.61792 0 89.78432 40.192 89.78432 89.77408v359.2192c0 49.58208-40.1664 89.78944-89.78432 89.78944z m-224.47616-331.52v-40.93952c0-25.71264-20.1216-46.54592-44.93824-46.54592-24.7552 0-44.90752 20.83328-44.90752 46.54592v40.9344c-35.36384 16.57344-59.88864 52.1728-59.88864 93.42976 0 57.11872 46.96064 103.43424 104.79616 103.43424 57.89696 0 104.79616-46.31552 104.79616-103.43424 0-41.25184-24.46336-76.85632-59.85792-93.42976z"  horiz-adv-x="1024" />

    
    <glyph glyph-name="yanzhengma" unicode="&#58884;" d="M835.1 695.1c-7.7-0.3-15.3-0.4-22.7-0.4-194.9 0-280.9 82.6-281.6 83.3l-19.4 19.7-19.6-19.7c-0.8-0.9-85-83.3-281.5-83.3-7.4 0-15 0.1-22.7 0.4l-27.4 0.9v-374.4c0-98 35.4-241 341.6-350.4l9.6-3.4 9.6 3.4c306.2 109.4 341.6 252.4 341.6 350.4V696l-27.5-0.9M481.2 224.8L304.8 378.4l46.8 37.3 93.8-68S574.9 479.4 700 541l17.9-19.8S561.6 393.8 481.2 224.8m0 0"  horiz-adv-x="1024" />

    
    <glyph glyph-name="user" unicode="&#58882;" d="M868.089068-61.28043600000001L154.264433-61.28043600000001c-49.279357 0-89.228207 39.948851-89.228207 89.227184l0 713.827705c0 49.279357 39.948851 89.228207 89.228207 89.228207l713.824635 0c49.279357 0 89.228207-39.948851 89.228207-89.228207l0-713.827705C957.317275-21.33260800000005 917.369448-61.28043600000001 868.089068-61.28043600000001zM778.016633 177.33205699999996c-15.568581 48.186466-100.141768 68.341504-145.078213 86.640266-50.331315 20.430308-39.140439 52.502771-34.456766 79.150688 0.818645 4.634554 1.997494 8.376785 3.382027 11.739369 9.737782 8.138354 18.626219 17.653055 26.706245 28.127617 0.618077 0.496304 1.184989 0.927115 1.818415 1.447978l-0.751107 0c9.517771 12.57848 17.662265 26.720571 24.352641 41.968857 10.695596 3.692089 26.411533 12.961196 31.772634 43.972491 4.595668 26.579355-6.703679 37.893029-12.545734 41.859363 0.11461 3.075035 0.363274 6.106068 0.363274 9.216919 0 111.087051-52.930513 201.143113-163.1498 201.143113-113.943099 0-163.148777-90.056062-163.148777-201.143113 0-3.444449 0.261966-6.80294 0.402159-10.203386-5.968945-4.602831-15.513322-15.999392-11.247158-41.032532 5.133927-30.113855 19.836791-39.729863 30.367635-43.674709 6.716982-15.338337 14.911618-29.55513 24.486694-42.196031l-0.079818 0c0.066515-0.057305 0.134053-0.109494 0.201591-0.164752 8.378831-11.038404 17.632589-21.052478 27.829835-29.540803 1.814322-4.047176 3.060709-8.556886 3.494591-13.764492 2.410909-28.481681 17.696034-45.788859-20.510126-70.157873-48.432059-30.90487-151.245679-38.169321-161.28636-105.765859-8.751315-58.613956-1.25355-65.74026 7.831362-72.904427 16.314571-12.858866 182.586478-30.701233 262.029832-31.012318 79.410608-0.251733 251.055896 18.113543 264.755919 37.873586C789.253558 118.66488900000002 787.143501 149.15941399999997 778.016633 177.33205699999996z"  horiz-adv-x="1024" />

    
    <glyph glyph-name="shoucang" unicode="&#58935;" d="M802.191355-128a99.46576 99.46576 0 0 0-45.75425 11.438562L533.136474 0.808159000000046l-222.803303-117.369597a99.46576 99.46576 0 0 0-142.733365 103.444391l42.770277 248.6644L29.839728 411.601748a99.46576 99.46576 0 0 0 54.208839 167.102477l248.6644 36.305003L447.59592 841.293832a99.46576 99.46576 0 0 0 176.054396 0l111.401651-225.787275 248.6644-36.305003a99.46576 99.46576 0 0 0 54.208839-167.599806l-180.530354-176.054395 42.770277-248.6644a99.46576 99.46576 0 0 0-96.481788-114.882953zM533.136474 823.389995a24.86644 24.86644 0 0 1-22.877125-14.422535L389.90578 566.2710050000001A36.305002 36.305002 0 0 0 363.050024 547.8698400000001l-268.557552-38.791647a25.861098 25.861098 0 0 1-14.422535-44.262263l193.958232-189.482273a36.305002 36.305002 0 0 0 10.443905-31.829043l-45.75425-267.065566a25.861098 25.861098 0 0 1 37.29966-27.353084l240.209811 126.321515a36.305002 36.305002 0 0 0 33.818358 0l240.209811-126.321515a25.861098 25.861098 0 0 1 37.29966 27.353084l-45.75425 267.065566a36.305002 36.305002 0 0 0 10.443905 31.829043l193.958232 189.482273a25.861098 25.861098 0 0 1-14.422535 44.262263L703.720253 547.8698400000001a36.305002 36.305002 0 0 0-27.353084 19.893152l-119.856241 241.204468a24.86644 24.86644 0 0 1-23.374454 14.422535z"  horiz-adv-x="1066" />

    
    <glyph glyph-name="jilu" unicode="&#58890;" d="M557.545227 149.365317l129.471265 48.103948 7.164418 7.676162-80.855573 80.855573-7.676162-7.676162zM721.032124 232.38556700000004l-80.691814 80.696932 201.550425 201.550425 80.696931-80.691815zM976.663668 541.873063l-27.122439 27.122439c-14.84058 14.84058-38.892554 14.84058-54.244877 0l-27.634183-27.634183L948.517741 461.017491l27.634183 27.634183c15.352324 13.817091 15.352324 38.38081 0.511744 53.221389zM703.904048 172.90554699999996l-206.744628-74.714642 77.785108 203.674162 282.994502 282.994503c1.535232 1.535232 3.582209 3.070465 5.117442 4.605697v0.511744l-187.298351-0.511744c-47.08046 0-85.973013 37.869065-85.973014 84.437781l0.511745 220.56172-0.511745 1.535232H150.708646c-44.009995 0-79.832084-35.822089-79.832084-79.832084v-864.335832c0-44.009995 35.822089-79.832084 79.832084-79.832084H783.224388c44.009995 0 79.832084 35.822089 79.832084 79.832084v380.225887l-159.152424-159.152424zM190.112944 451.806097h200.603698c18.934533 0 34.798601-15.864068 34.7986-34.798601 0-19.446277-15.864068-34.798601-34.7986-34.7986H190.112944c-18.934533 0-34.798601 15.864068-34.798601 34.7986s15.864068 34.798601 34.798601 34.798601z m0-121.283358h200.603698c18.934533 0 34.798601-15.864068 34.7986-34.798601 0-19.446277-15.864068-34.798601-34.7986-34.798601H190.112944c-18.934533 0-34.798601 15.864068-34.798601 34.798601s15.864068 34.798601 34.798601 34.798601z m0-112.583709h200.603698c18.934533 0 34.798601-15.864068 34.7986-34.7986 0-19.446277-15.864068-34.798601-34.7986-34.798601H190.112944c-18.934533 0-34.798601 15.864068-34.798601 34.798601 0 18.934533 15.864068 34.798601 34.798601 34.7986z m520.443778-154.546726c18.934533 0 34.798601-15.864068 34.7986-34.798601 0-19.446277-15.352324-34.798601-34.7986-34.798601H189.601199c-18.934533 0-34.798601 15.864068-34.7986 34.798601 0 18.934533 15.864068 34.798601 34.7986 34.798601h520.955523z"  horiz-adv-x="1024" />

    
    <glyph glyph-name="yishoucang" unicode="&#58883;" d="M786.309939-107.349333c-11.093333 0-23.893333 3.754667-34.986666 9.216l-239.616 119.808L270.043273-98.133333c-23.893333-12.970667-55.296-11.093333-77.482667 5.461333s-34.986667 46.08-29.525333 73.728l49.834666 258.048L23.088606 416.085333C2.779273 436.394667-4.559394 467.797333 2.779273 493.568c9.216 27.648 31.402667 47.957333 60.757333 51.541333l263.68 47.957334L445.317939 832.853333c12.970667 25.770667 38.741333 42.325333 66.389334 42.325334S567.003273 858.624 578.096606 832.853333l117.930667-239.616 263.68-46.08c27.648-3.754667 51.541333-23.893333 59.050666-51.541333 9.216-27.648 1.877333-57.173333-18.432-77.482667L810.203273 239.10400000000004l47.957333-258.048c5.461333-29.525333-7.338667-57.173333-29.525333-73.728-10.922667-9.216-25.770667-14.677333-42.325334-14.677333z"  horiz-adv-x="1024" />

    
    <glyph glyph-name="huzhu" unicode="&#58891;" d="M572.784 287.424c-0.576 0.608-1.136 1.264-1.744 1.872-3.456 3.392-8.224 5.312-13.2 5.312s-9.744-1.92-13.2-5.312a17.808 17.808 0 0 1 0-25.68l155.12-150.672c-15.2-12.832-30.128-24.992-44.528-36.4l-13.344 12.992-141.424 137.504c-0.576 0.656-1.168 1.376-1.856 2.016-3.456 3.392-8.224 5.312-13.2 5.312s-9.744-1.92-13.2-5.312c-3.824-3.776-5.792-8.928-5.392-14.16s3.136-10.048 7.504-13.264l151.696-147.696a1870.432 1870.432 0 0 0-47.952-35.232l-151.84 147.696c-1.072 0.384-1.744 1.184-2.496 1.92-3.456 3.392-8.224 5.312-13.2 5.312s-9.744-1.92-13.2-5.312c-4.08-4.016-6.016-9.584-5.28-15.12s4.08-10.464 9.088-13.392l146.352-142.32c-22.544-15.328-36.176-23.76-36.176-23.76S48 273.712 48 516.496C48 713.472 166.512 761.648 269.312 761.648c99.312 0.656 185.36-70.48 222.496-106.48-0.144-0.144 156.864-162.128 221.568-228.848 2.24-2.32 4.432-4.384 6.56-6.16 1.568-2.88 3.92-5.312 6.816-7.04 8.704-8.672 20.512-8.672 27.808-1.568 4.032 3.968 5.968 9.456 5.296 14.928s-3.888 10.384-8.784 13.376a21.328 21.328 0 0 1-6.176 4.928 77.088 77.088 0 0 1-21.232 15.424c-55.104 56.848-154.016 158.848-193.456 199.584 8.352 5.968 36.832 26.432 53.072 39.92 43.648 31.664 103.488 62.928 169.536 62.576C857.136 762.256 976 714.1279999999999 976 516.496c0-100.64-79.936-212.176-173.472-308.272L538.464 464.96c-1.072 0.352-1.744 1.152-2.496 1.92-3.456 3.392-8.224 5.312-13.2 5.312s-9.744-1.92-13.2-5.312a17.856 17.856 0 0 1-5.28-15.136c0.736-5.536 4.096-10.464 9.12-13.392l140.272-136.384 122.976-119.584c-16-15.504-32.368-30.672-49.104-45.456l-13.344 12.96-141.392 137.504h-0.032v0.032z"  horiz-adv-x="1024" />

    
    <glyph glyph-name="jihua" unicode="&#58886;" d="M227.555556 820.148148h568.888888a94.814815 94.814815 0 0 0 94.814815-94.814815v-530.962963H701.62963a56.888889 56.888889 0 0 1-56.888889-56.888889v-189.629629H227.555556a94.814815 94.814815 0 0 0-94.814815 94.814815V725.333333a94.814815 94.814815 0 0 0 94.814815 94.814815z m474.074074-663.703704h189.629629L682.666667-52.148148V137.481481a18.962963 18.962963 0 0 0 18.962963 18.962963zM442.462815 433.645037l125.970963-120.244148a18.962963 18.962963 0 0 1 26.187852 0l139.055407 132.740741a18.962963 18.962963 0 1 1-26.168889 27.420444l-125.970963-120.225185-125.970963 120.225185a18.962963 18.962963 0 0 1-26.187852 0l-139.055407-132.740741a18.962963 18.962963 0 1 1 26.168889-27.420444l125.970963 120.225185z"  horiz-adv-x="1024" />

    
    <glyph glyph-name="yizhu" unicode="&#58921;" d="M320.011636 655.511273h376.389819c17.664 0 28.485818 15.278545 28.485818 30.545454v91.636364c0 19.141818-14.242909 30.545455-28.485818 30.545454h-17.675637c-17.664 0-28.485818 15.266909-28.485818 30.545455 0 30.545455-24.878545 57.227636-56.785455 57.227636H426.542545c-31.906909 0-56.773818-26.682182-56.773818-57.227636 0-19.141818-14.242909-30.545455-28.485818-30.545455h-21.271273c-17.664 0-28.485818-15.278545-28.485818-30.545454v-91.636364c0-19.130182 14.242909-30.545455 28.485818-30.545454zM512 838.784c35.514182 0 60.392727-30.545455 60.392727-64.954182 0-41.949091-28.485818-64.954182-60.392727-64.954182-31.906909 0-60.392727 30.545455-60.392727 64.954182S480.093091 838.784 512 838.784z m340.701091-68.631273h-17.664c-17.664-0.197818-31.895273-11.601455-31.895273-30.743272h-0.011636v-133.771637c0-19.141818-14.242909-30.545455-28.474182-30.545454l-529.093818-3.863273c-17.664 0-28.485818 15.266909-28.485818 30.545454V735.546182c0 19.130182-14.242909 30.545455-28.485819 30.545454H170.938182c-46.149818 3.863273-67.421091-26.682182-67.421091-68.817454v-745.041455c0-34.408727 31.906909-80.232727 74.635636-80.232727h663.912728c35.514182 0 74.635636 41.949091 74.635636 80.232727V701.323636c-0.011636 34.420364-24.878545 68.829091-64 68.829091z m-113.047273-458.112L496.768 64.90763600000002a44.450909 44.450909 0 0 0-32.197818-13.591272 44.497455 44.497455 0 0 0-32.186182 13.591272L280.564364 219.35709099999997a47.755636 47.755636 0 0 0 0 65.547636 44.962909 44.962909 0 0 0 30.429091 13.207273 44.590545 44.590545 0 0 0 34.001454-13.207273l119.586909-121.704727 210.699637 214.341818a45.253818 45.253818 0 0 0 32.197818 13.288727c12.16 0 23.796364-4.794182 32.186182-13.288727a47.732364 47.732364 0 0 0-0.011637-65.501091z"  horiz-adv-x="1024" />

    
    <glyph glyph-name="shezhi" unicode="&#59118;" d="M512 192c-105.6 0-192 86.4-192 192s86.4 192 192 192 192-86.4 192-192-86.4-192-192-192z m0 320c-70.4 0-128-57.6-128-128s57.6-128 128-128 128 57.6 128 128-57.6 128-128 128z m75.2-576H438.4c-46.4 0-84.8 38.4-84.8 84.8 0 8-4.8 16-12.8 19.2-12.8 6.4-25.6 14.4-38.4 22.4-8 4.8-16 4.8-22.4 1.6-41.6-24-92.8-9.6-116.8 32L86.4 224c-11.2 19.2-14.4 43.2-8 65.6 6.4 22.4 20.8 40 40 51.2 6.4 4.8 11.2 12.8 11.2 20.8v44.8c0 8-3.2 16-11.2 20.8-41.6 24-54.4 75.2-32 116.8l75.2 129.6c24 41.6 75.2 54.4 116.8 32 6.4-3.2 16-3.2 22.4 1.6 12.8 8 25.6 16 38.4 22.4 8 3.2 12.8 11.2 12.8 19.2 0 44.8 38.4 83.2 84.8 83.2h148.8c48 0 86.4-38.4 86.4-84.8 0-8 4.8-16 12.8-19.2 12.8-6.4 25.6-14.4 38.4-22.4 8-4.8 16-4.8 24-1.6 19.2 11.2 43.2 14.4 64 8 22.4-6.4 40-20.8 51.2-40l75.2-129.6c24-41.6 9.6-92.8-32-116.8-6.4-4.8-11.2-12.8-11.2-20.8V360c0-8 3.2-16 11.2-20.8 19.2-11.2 33.6-30.4 40-51.2s3.2-44.8-8-65.6L862.4 96c-24-40-75.2-54.4-116.8-32-6.4 4.8-16 3.2-24-1.6-12.8-8-25.6-16-38.4-22.4-8-3.2-12.8-11.2-12.8-19.2 1.6-46.4-36.8-84.8-83.2-84.8zM288 131.20000000000005c16 0 33.6-4.8 48-14.4 9.6-6.4 20.8-12.8 32-17.6 28.8-14.4 48-44.8 48-76.8 0-11.2 9.6-20.8 20.8-20.8h148.8c11.2 0 20.8 9.6 20.8 20.8 0 32 17.6 62.4 48 76.8 11.2 4.8 20.8 11.2 32 17.6 27.2 17.6 62.4 19.2 89.6 3.2 9.6-6.4 24-1.6 28.8 8L880 257.6c3.2 4.8 3.2 11.2 1.6 16-1.6 4.8-4.8 9.6-9.6 12.8-28.8 16-44.8 46.4-43.2 80v35.2c-1.6 33.6 14.4 64 43.2 80 9.6 6.4 14.4 19.2 8 28.8L808 640c-3.2 4.8-8 8-12.8 9.6-4.8 1.6-11.2 0-16-1.6-28.8-16-62.4-14.4-89.6 3.2-9.6 6.4-20.8 12.8-32 17.6-28.8 14.4-48 44.8-48 76.8-1.6 12.8-11.2 22.4-22.4 22.4H438.4c-12.8 0-22.4-9.6-22.4-20.8 0-32-17.6-62.4-48-76.8-11.2-4.8-20.8-11.2-32-17.6-27.2-17.6-62.4-19.2-91.2-3.2-9.6 6.4-24 1.6-28.8-8L142.4 512c-6.4-9.6-1.6-24 8-28.8 28.8-16 44.8-46.4 43.2-80V368c1.6-33.6-14.4-64-43.2-80-4.8-3.2-8-8-9.6-12.8-1.6-4.8 0-11.2 1.6-16l75.2-129.6c6.4-9.6 19.2-14.4 28.8-8 12.8 6.4 27.2 9.6 41.6 9.6z"  horiz-adv-x="1024" />

    
    <glyph glyph-name="gengduo" unicode="&#59187;" d="M736 384c0-8-3.2-16-9.6-22.4l-384-384c-12.8-12.8-32-12.8-44.8 0-12.8 12.8-12.8 32 0 44.8L659.2 384 297.6 745.6c-12.8 12.8-12.8 32 0 44.8 12.8 12.8 32 12.8 44.8 0l384-384c6.4-6.4 9.6-14.4 9.6-22.4z"  horiz-adv-x="1024" />

    
    <glyph glyph-name="gongzuobiao" unicode="&#58931;" d="M647.800069 705.712931a25.294641 25.294641 0 0 0-17.868932 7.242034 63.577712 63.577712 0 0 0-12.830995 17.317908 92.519609 92.519609 0 0 0-7.635623 20.991403 84.936465 84.936465 0 0 0-2.623925 17.868932V896h2.046662a57.988751 57.988751 0 0 0 16.924318-2.623925 84.123048 84.123048 0 0 0 20.466618-9.682285 271.025253 271.025253 0 0 0 28.653266-20.991403c11.309118-9.262457 25.373358-21.280035 42.428873-36.288888q27.629934-24.559942 43.504683-41.982806c10.495702-11.59775 18.682349-21.280035 24.559941-29.17805a60.533959 60.533959 0 0 0 10.784334-19.915594 60.114131 60.114131 0 0 0 2.046662-14.326633v-15.402442z m118.680145-383.565412a225.080319 225.080319 0 1 0 0-450.134399 219.622554 219.622554 0 0 0-86.878169 17.317907 222.24648 222.24648 0 0 0-71.606924 48.149031 231.74509 231.74509 0 0 0-48.568859 71.606924 225.657583 225.657583 0 0 0 0 175.960436 232.506028 232.506028 0 0 0 48.568859 71.606923 222.745026 222.745026 0 0 0 158.511332 65.598135z m127.942602-260.949379a20.151747 20.151747 0 0 1 16.373294 10.233309 45.315191 45.315191 0 0 1 0 49.093644 20.151747 20.151747 0 0 1-16.373294 10.233309h-97.242675v90.053119a17.370386 17.370386 0 0 1-8.737671 14.326632 41.14315 41.14315 0 0 1-24.008918 6.139986 36.734955 36.734955 0 0 1-23.064304-6.139986 17.763975 17.763975 0 0 1-7.635623-14.326632v-112.54016a55.968328 55.968328 0 0 1-2.046661-12.279971 41.772892 41.772892 0 0 1 7.242034-24.559941 20.151747 20.151747 0 0 1 16.373294-10.233309z m-419.434473 66.568987a101.047366 101.047366 0 0 1-0.944613-14.326633v-15.402442a279.159421 279.159421 0 0 1 13.119627-86.878169 318.59702 318.59702 0 0 1 36.734956-76.802296H161.79661a97.40011 97.40011 0 0 0-42.428874 11.309118 183.123752 183.123752 0 0 0-42.979897 29.597878 170.55515 170.55515 0 0 0-33.271374 41.982807 98.344723 98.344723 0 0 0-13.119627 49.093643V764.095271a108.919143 108.919143 0 0 0 10.233309 44.475535 173.966253 173.966253 0 0 0 26.475407 42.428874A146.729907 146.729907 0 0 0 104.516319 883.169005 87.402954 87.402954 0 0 0 149.516639 896h391.883256v-127.811405a157.120652 157.120652 0 0 1 6.139985-42.428874 138.88437 138.88437 0 0 1 19.495766-41.458021 107.213591 107.213591 0 0 1 33.691202-31.775736 91.837388 91.837388 0 0 1 48.149031-12.279971h149.353832v-254.678198a70.845985 70.845985 0 0 1-17.317907 2.046662h-18.603631a279.579249 279.579249 0 0 1-140.091376-35.86906 288.34316 288.34316 0 0 1-102.33309-96.166865H222.225611a63.131645 63.131645 0 0 1-45.551344-18.367478 60.166609 60.166609 0 0 1-18.970981-45.00032 64.732239 64.732239 0 0 1 64.522325-64.522325l252.762732 0.131196z m-252.762732 384.667461a64.732239 64.732239 0 0 1-64.522325-64.522326 60.166609 60.166609 0 0 1 18.970981-45.00032 62.974209 62.974209 0 0 1 45.551344-18.367477h383.696609a62.974209 62.974209 0 0 1 63.420277 63.420276 63.131645 63.131645 0 0 1-18.367478 45.551345 60.166609 60.166609 0 0 1-45.00032 18.97098z"  horiz-adv-x="1024" />

    
    <glyph glyph-name="about" unicode="&#58880;" d="M141.420471 551.8277969999999c105.682823-43.452708 264.603575-108.261402 271.503707-111.075946 13.434154-5.691119 28.358289-28.936037 28.366803-53.323071v-375.562755c0-8.739194-5.981817-13.3928-10.300937-13.392799-0.976698 0-1.983803 0.220152-3.077267 0.671403-109.945993 45.430429-258.417418 108.077739-259.90375 108.705356l-0.097305 0.041355-0.097304 0.040138c-14.307465 5.958707-26.395163 30.38223-26.395164 53.332801V551.8277969999999m-44.819841 66.987108v-457.551842c0-35.879956 18.562121-79.955415 53.982311-94.70805 0 0 148.833886-62.811512 260.215126-108.834285 6.717685-2.775622 13.542406-4.06856 20.193194-4.06856 29.181732 0 55.121995 24.845583 55.121994 58.215074V387.429997c-0.015812 40.694114-24.115797 81.425935-56.051256 94.739674 0-0.001216-244.978399 99.887102-333.461369 136.645234zM879.252919 551.8277969999999v-390.563518c0-22.949354-12.087698-47.372878-26.395163-53.332801l-0.097305-0.040138-0.096089-0.041355c-1.487548-0.627616-149.957757-63.27371-259.904966-108.705356-1.093464-0.451251-2.099353-0.671404-3.07605-0.671403-4.31912 0-10.300937 4.654822-10.300937 13.392799V387.412968c0.00973 24.402846 14.933865 47.64898 28.366803 53.3401 6.900132 2.813327 165.820884 67.623238 271.503707 111.074729m44.821057 66.987108c-88.48297-36.758132-333.461369-136.64645-333.461369-136.646451-31.93546-13.313739-56.03666-54.045559-56.051256-94.739674v-375.562755c0-33.367057 25.942696-58.215073 55.121995-58.215073 6.653221 0 13.473076 1.291722 20.193194 4.06856 111.38124 46.023989 260.215125 108.834285 260.215125 108.834285 35.42019 14.752635 53.983528 58.828094 53.983528 94.70805V618.814905h-0.001217zM510.337303 770.204259c17.854228 0 35.335049-2.733051 46.761073-7.311244l246.458649-98.742554-246.458649-98.742553c-11.427241-4.578194-28.908062-7.311245-46.761073-7.311245s-35.333832 2.733051-46.761073 7.311245L217.116364 664.150461l246.458649 98.742554c11.427241 4.578194 28.908062 7.311245 46.76229 7.311244m0 44.821058c-22.957869 0-45.914521-3.509057-63.430614-10.525955L96.599413 664.150461l350.306059-140.3489c17.516094-7.018114 40.473962-10.527171 63.430615-10.527171 22.957869 0 45.914521 3.509057 63.430614 10.527171l350.306059 140.3489L573.767917 804.499362c-17.516094 7.018114-40.473962 10.525955-63.430614 10.525955z"  horiz-adv-x="1024" />

    
    <glyph glyph-name="xuanzhong" unicode="&#59039;" d="M0 255.1C94.2 311.3 188.4 367.5 282.6 423.8c45.5-87.1 91.2-174.4 136.7-261.5 0.1-0.1 118.7 250.8 222.1 389.5C751.3 699.3 842.9 809.6 993.7 869c-16.3-46.4-20.8-89.6-20.8-162 2.6-57.5 13.3-112.7 50.7-199.5-72.7-33.5-140.7-76.2-175.6-106.3-48.3-41.7-92.5-89.6-136.8-136C611.3 151 559.6 86 437-100.5c-90.9 109.9-115.3 132.2-186.3 194.1C164.8 168.4 116.6 198.4 0 255.1z m0 0"  horiz-adv-x="1024" />

    
    <glyph glyph-name="phone" unicode="&#58889;" d="M802 762.919C802 782.294 786.294 798 766.919 798H281.081C261.706 798 246 782.294 246 762.919V5.080000000000041c0-19.374 15.706-35.08 35.081-35.08H766.92c19.374 0 35.08 15.706 35.08 35.081V762.919zM449.789 764h147.339c4.844 0 8.77-4.156 8.77-9s-3.927-9-8.77-9H449.789c-4.844 0-8.77 4.156-8.77 9s3.927 9 8.77 9z m73.67-777.33c-29.062 0-52.621 23.559-52.621 52.621s23.559 52.621 52.621 52.621 52.621-23.559 52.621-52.621-23.559-52.621-52.621-52.621zM750 146.08100000000002C750 126.70600000000002 734.294 111 714.919 111H334.081C314.706 111 299 126.70600000000002 299 146.08100000000002V675.919C299 695.294 314.706 711 334.081 711H714.92c19.374 0 35.08-15.706 35.08-35.081v-529.838z"  horiz-adv-x="1024" />

    
    <glyph glyph-name="weiwancheng" unicode="&#59731;" d="M512 896C229.3 896 0 666.7 0 384s229.3-512 512-512 512 229.3 512 512S794.7 896 512 896z m173.7-637.3c13.4-13.4 13.4-35.1 0-48.5-6.7-6.7-15.4-10.1-24.2-10.1-8.8 0-17.6 3.3-24.2 10.1L512 335.5 386.7 210.3c-6.7-6.7-15.4-10.1-24.2-10.1-8.8 0-17.6 3.3-24.2 10.1-13.4 13.4-13.4 35.1 0 48.5L463.5 384 338.3 509.3c-13.4 13.4-13.4 35.1 0 48.5 6.7 6.7 15.4 10.1 24.2 10.1 8.8 0 17.6-3.3 24.2-10.1L512 432.5l125.3 125.3c6.7 6.7 15.4 10.1 24.2 10.1 8.8 0 17.6-3.3 24.2-10.1 13.4-13.4 13.4-35.1 0-48.5L560.5 384l125.2-125.3z"  horiz-adv-x="1024" />

    
    <glyph glyph-name="weishoucang" unicode="&#58899;" d="M773.12-102.39999999999998c-15.36 0-28.16 5.12-33.28 10.24L512 25.600000000000023l-230.4-117.76c-23.04-12.8-53.76-10.24-74.24 5.12-23.04 17.92-33.28 46.08-28.16 74.24l48.64 256-181.76 174.08c-17.92 20.48-25.6 51.2-20.48 76.8 10.24 28.16 30.72 48.64 58.88 51.2l250.88 48.64 112.64 238.08C460.8 855.04 486.4 870.4 512 870.4c28.16 0 53.76-17.92 64-40.96l112.64-238.08 250.88-46.08c25.6-2.56 48.64-23.04 56.32-51.2 7.68-25.6 2.56-56.32-17.92-76.8l-181.76-176.64 46.08-256c5.12-28.16-5.12-56.32-28.16-74.24-10.24-7.68-25.6-12.8-40.96-12.8zM245.76-25.600000000000023zM102.4 468.48l207.36-202.24L256-20.480000000000018l253.44 130.56 250.88-130.56-51.2 286.72 207.36 202.24-286.72 51.2L512 783.36l-122.88-258.56L102.4 468.48z m824.32 2.56s0-2.56 0 0z m-5.12 2.56zM504.32 796.16z"  horiz-adv-x="1024" />

    
    <glyph glyph-name="luruhuanzhe" unicode="&#58892;" d="M501.76 24.043519999999944c5.12-7.72096 8.99072-16.1792 11.4688-25.088 0.34816-1.39264 0.9216-3.05152 0.9216-4.03456 0-12.4928-5.7344-23.28576-14.19264-30.8224a38.2976 38.2976 0 0 0-25.2928-10.17856H76.65664c-33.50528 0-63.44704 22.7328-74.5472 56.58624A42.25024 42.25024 0 0 0 0 23.715839999999957v145.79712c0 38.21568 25.4976 77.74208 59.392 91.93472a1173.56544 1173.56544 0 0 0 203.1616 68.28032c-56.832 40.71424-94.24896 108.83072-94.24896 185.93792v134.22592C168.30464 774.3078399999999 265.60512 875.52 385.16736 875.52s216.8832-101.21216 216.8832-225.62816v-134.26688c0-7.31136-0.9216-14.336-1.57696-21.504a226.5088 226.5088 0 0 0-91.05408-162.46784c-1.26976-1.10592-2.39616-2.17088-3.95264-3.39968-72.0896-101.70368-35.49184-230.48192-3.6864-304.20992z m357.53984 157.55264c15.872 0 28.672 13.35296 28.672 29.85984 0 16.50688-12.8 29.85984-28.672 29.85984H806.912v53.94432c0 16.50688-12.8 29.85984-28.672 29.85984-15.872 0-28.672-13.35296-28.672-29.85984v-53.94432h-54.10816c-15.872 0-28.672-13.35296-28.672-29.85984a29.2864 29.2864 0 0 1 28.672-29.85984H749.568v-57.01632a29.2864 29.2864 0 0 1 28.672-29.85984c15.872 0 28.672 13.35296 28.672 29.85984v57.01632h52.38784z m-21.4016 276.39808C944.61952 430.14144 1024 329.64608 1024 209.91999999999996c0-119.72608-79.36-220.16-186.10176-248.05376-19.12832-4.95616-39.05536-7.94624-59.65824-7.94624-135.51616 0-245.76 114.81088-245.76 256C532.48 351.15008 642.72384 465.92 778.24 465.92a235.52 235.52 0 0 0 59.65824-7.92576z"  horiz-adv-x="1024" />

    
    <glyph glyph-name="xiaoxi" unicode="&#58911;" d="M512 686.545455a209.454545 209.454545 0 0 0 209.454545-209.454546v-248.552727a91.694545 91.694545 0 0 1 17.454546-53.992727l33.047273-46.545455H252.043636l33.047273 46.545455a91.694545 91.694545 0 0 1 17.454546 53.992727V477.090909a209.454545 209.454545 0 0 0 209.454545 209.454546m0 69.818181a279.272727 279.272727 0 0 1-279.272727-279.272727v-248.552727a23.272727 23.272727 0 0 0-4.421818-13.498182l-59.345455-83.316364A46.545455 46.545455 0 0 1 206.894545 58.181818h610.21091a46.545455 46.545455 0 0 1 37.934545 73.541818l-59.345455 83.316364a23.272727 23.272727 0 0 0-4.421818 13.498182V477.090909A279.272727 279.272727 0 0 1 512 756.363636zM535.272727 779.636364h-46.545454a34.909091 34.909091 0 0 0 0 69.818181h46.545454a34.909091 34.909091 0 0 0 0-69.818181zM593.454545-58.181818h-139.636363a34.909091 34.909091 0 0 0 0 69.818182h139.636363a34.909091 34.909091 0 0 0 0-69.818182z"  horiz-adv-x="1024" />

    
    <glyph glyph-name="anpai" unicode="&#58905;" d="M921.6-127.70742900000005H102.4a102.034286 102.034286 0 0 0-72.374857 30.171429A103.314286 103.314286 0 0 0 0-24.64914299999998V715.885714a103.241143 103.241143 0 0 0 30.025143 72.850286A101.888 101.888 0 0 0 102.4 818.944h76.8v-77.312a102.4 102.4 0 1 1 204.8 0V818.944h256v-77.312a102.4 102.4 0 1 1 204.8 0V818.944h76.8a101.997714 101.997714 0 0 0 72.411429-30.208 103.387429 103.387429 0 0 0 30.025142-72.850286v-740.534857a103.460571 103.460571 0 0 0-30.025142-72.886857 102.107429 102.107429 0 0 0-72.411429-30.171429z m-166.4 379.830858h76.8a38.656 38.656 0 0 1 0 77.275428h-76.8a38.656 38.656 0 0 1 0-77.275428z m-281.6-231.899429h76.8a38.656 38.656 0 0 1 0 77.312h-76.8a38.656 38.656 0 0 1 0-77.312z m0 231.899429h76.8a38.656 38.656 0 0 1 0 77.275428h-76.8a38.656 38.656 0 0 1 0-77.275428z m-281.6-231.899429h76.8a38.656 38.656 0 0 1 0 77.312h-76.8a38.656 38.656 0 0 1 0-77.312z m0 231.899429h76.8a38.656 38.656 0 0 1 0 77.275428h-76.8a38.656 38.656 0 0 1 0-77.275428z m716.8 309.174857H115.2a38.656 38.656 0 0 1 0-77.312h793.6a38.656 38.656 0 0 1 0 77.312zM742.4 690.102857a51.2 51.2 0 0 0-51.2 51.529143V844.8a51.2 51.2 0 1 0 102.4 0v-103.058286a51.2 51.2 0 0 0-51.2-51.529143z m-460.8 0a51.2 51.2 0 0 0-36.205714 15.104 51.785143 51.785143 0 0 0-14.994286 36.571429V844.8a51.2 51.2 0 1 0 102.4 0v-103.058286a51.638857 51.638857 0 0 0-14.994286-36.571428 51.2 51.2 0 0 0-36.205714-15.104z m0 0"  horiz-adv-x="1024" />

    
    <glyph glyph-name="weiqueren" unicode="&#58940;" d="M894.43 545.5699999999999c-20.9 49.43-50.83 93.82-88.94 131.92-38.1 38.11-82.49 68.04-131.92 88.94C622.38 788.08 568.02 799.06 512 799.06s-110.38-10.98-161.57-32.63c-49.43-20.9-93.82-50.83-131.92-88.94-38.11-38.1-68.04-82.49-88.94-131.92C107.92 494.38 96.94 440.02 96.94 384c0-56.02 10.98-110.38 32.63-161.57 20.9-49.43 50.83-93.82 88.94-131.92 38.1-38.11 82.49-68.04 131.92-88.94 51.19-21.65 105.55-32.63 161.57-32.63s110.38 10.98 161.57 32.63c49.43 20.9 93.82 50.83 131.92 88.94 38.11 38.1 68.04 82.49 88.94 131.92 21.65 51.19 32.63 105.55 32.63 161.57 0 56.02-10.98 110.38-32.63 161.57zM735.91 319.72H480.02c-17.67 0-32 14.32-32 32V608.01c0 17.67 14.33 32 32 32s32-14.33 32-32v-224.29h223.89c17.67 0 32-14.33 32-32 0-17.68-14.33-32-32-32z"  horiz-adv-x="1024" />

    


  </font>
</defs>
</svg>
